<svg width="15" height="14" viewBox="0 0 15 14" fill="none" xmlns="http://www.w3.org/2000/svg">
<path d="M3.0625 14H2.1875L2.7125 13.3C3.0625 12.8188 3.28125 12.2063 3.4125 11.4625C1.225 10.4563 0 8.575 0 6.125C0 2.3625 2.84375 0 7.4375 0C12.0312 0 14.875 2.3625 14.875 6.125C14.875 9.975 12.075 12.25 7.4375 12.25H7.13125C6.43125 13.0813 5.20625 14 3.0625 14ZM7.4375 0.875C3.325 0.875 0.875 2.84375 0.875 6.125C0.875 8.925 2.58125 10.2375 4.025 10.8063L4.33125 10.9375L4.2875 11.2875C4.2 11.9875 4.06875 12.6 3.80625 13.125C5.25 12.95 6.08125 12.2063 6.5625 11.5938L6.69375 11.4187H7.4375C13.3438 11.4187 14 7.74375 14 6.16875C14 2.84375 11.55 0.875 7.4375 0.875Z" fill="#666666" fill-opacity="0.7"/>
</svg>
